# xmcd
# 
# Track frame offsets:
#     150
#     13400
#     25058
#     40915
#     55557
#     67970
#     81714
#     95170
#     108509
#     123312
#     135293
#     149633
#     162714
#     176172
#     189544
#     202823
#     215951
#     231005
#     243987
#     257347
#     270836
#     283891
#     298991
# 
# Disc length: 4146
# 
# Revision: 1
# Processed by: cddbd v1.5.2PL0 Copyright (c) Steve Scherf et al.
# Submitted via: fre:ac v1.0.17
# 
DISCID=63103017
DTITLE=John Steinbeck - The Grapes of Wrath [CD15)
DYEAR=1939
DGENRE=Audiobook
TTITLE0=Chapter 26.06
TTITLE1=Chapter 26.07
TTITLE2=Chapter 26.08
TTITLE3=Chapter 26.09
TTITLE4=Chapter 26.10
TTITLE5=Chapter 26.11
TTITLE6=Chapter 26.12
TTITLE7=Chapter 26.13
TTITLE8=Chapter 26.14
TTITLE9=Chapter 26.15
TTITLE10=Chapter 26.16
TTITLE11=Chapter 26.17
TTITLE12=Chapter 26.18
TTITLE13=Chapter 26.19
TTITLE14=Chapter 26.20
TTITLE15=Chapter 26.21
TTITLE16=Chapter 26.22
TTITLE17=Chapter 26.23
TTITLE18=Chapter 26.24
TTITLE19=Chapter 26.25
TTITLE20=Chapter 26.26
TTITLE21=Chapter 26.27
TTITLE22=Chapter 26.28
EXTD=The Grapes of Wrath by John Steinbeck\nread by Dylan Baker recorded books 18 CDs\nnational folk country
EXTT0=
EXTT1=
EXTT2=
EXTT3=
EXTT4=
EXTT5=
EXTT6=
EXTT7=
EXTT8=
EXTT9=
EXTT10=
EXTT11=
EXTT12=
EXTT13=
EXTT14=
EXTT15=
EXTT16=
EXTT17=
EXTT18=
EXTT19=
EXTT20=
EXTT21=
EXTT22=
PLAYORDER=
